<?xml version="1.0" encoding="UTF-8"?>
<svg xmlns="http://www.w3.org/2000/svg" xmlns:xlink="http://www.w3.org/1999/xlink" version="1.1" width="3840px" height="2160px" style="shape-rendering:geometricPrecision; text-rendering:geometricPrecision; image-rendering:optimizeQuality; fill-rule:evenodd; clip-rule:evenodd">
  <g>
    <path style="opacity:1" fill="#fe8e04" d="M 1849.5,40.5 C 1869.88,40.9423 1890.22,41.9423 1910.5,43.5C 1918.34,42.0362 1926.01,42.5362 1933.5,45C 1948.16,46.0949 1962.83,47.0949 1977.5,48C 2208.06,77.0929 2407.39,170.76 2575.5,329C 2654.14,404.446 2719.64,489.946 2772,585.5C 2775.66,589.367 2780.16,590.534 2785.5,589C 2787.54,588.546 2789.37,587.713 2791,586.5C 3039.45,571.949 3249.78,653.616 3422,831.5C 3566.88,991.275 3635.22,1179.94 3627,1397.5C 3610.71,1603.31 3527.88,1776.47 3378.5,1917C 3319.04,1970.23 3253.37,2014.23 3181.5,2049C 3091.11,2090.01 2996.11,2113.35 2896.5,2119C 2207.17,2119.67 1517.83,2119.67 828.5,2119C 796.615,2116.78 764.948,2112.78 733.5,2107C 702.864,2099.43 672.53,2091.09 642.5,2082C 631.482,2077.66 620.482,2073.33 609.5,2069C 446.641,1996.81 328.141,1879.64 254,1717.5C 195.08,1577.63 184.413,1433.96 222,1286.5C 273.144,1108.71 378.311,972.873 537.5,879C 592.538,848.825 650.538,825.825 711.5,810C 746.464,802.337 781.798,797.003 817.5,794C 826.833,793.667 836.167,793.333 845.5,793C 848.376,792.562 851.043,791.562 853.5,790C 919.461,570.953 1042.79,391.953 1223.5,253C 1248.22,235.277 1273.22,217.943 1298.5,201C 1343.64,172.93 1390.64,148.263 1439.5,127C 1468.49,116.013 1497.49,105.013 1526.5,94C 1550.36,87.7585 1574.03,80.7585 1597.5,73C 1613.56,69.3182 1629.56,65.6515 1645.5,62C 1673.05,56.6891 1700.72,52.0224 1728.5,48C 1754.28,46.9519 1779.95,44.9519 1805.5,42C 1820.34,41.8313 1835.01,41.3313 1849.5,40.5 Z"></path>
  </g>
  <g>
    <path style="opacity:1" fill="#fefefe" d="M 2067.5,166.5 C 2070.34,167.806 2073.34,168.973 2076.5,170C 2089.33,172.207 2101.99,175.041 2114.5,178.5C 2232.69,213.261 2340.36,268.095 2437.5,343C 2512.71,404.209 2578.21,474.375 2634,553.5C 2653.03,583.564 2671.53,613.897 2689.5,644.5C 2695.15,655.796 2701.31,666.796 2708,677.5C 2717.81,688.642 2730.14,694.308 2745,694.5C 2755.23,693.888 2765.4,692.888 2775.5,691.5C 2844.84,684.37 2913.84,686.704 2982.5,698.5C 3005.14,703.827 3027.81,709.493 3050.5,715.5C 3206.85,765.353 3330.35,858.686 3421,995.5C 3456.65,1052.5 3483.99,1113.5 3503,1178.5C 3507.89,1195.95 3511.89,1213.62 3515,1231.5C 3516.41,1244.6 3518.41,1257.6 3521,1270.5C 3542.1,1473.54 3484.76,1650.87 3349,1802.5C 3252.07,1904.91 3134.57,1972.07 2996.5,2004C 2961.37,2009.97 2926.04,2014.31 2890.5,2017C 2859.5,2017.5 2828.5,2017.67 2797.5,2017.5C 2211.83,2017.5 1626.17,2017.5 1040.5,2017.5C 971.166,2017.67 901.833,2017.5 832.5,2017C 710.987,2007.87 602.987,1965.53 508.5,1890C 465.11,1852.25 426.944,1810.08 394,1763.5C 375.52,1732.88 358.853,1701.21 344,1668.5C 337.924,1653.69 332.424,1638.69 327.5,1623.5C 319.418,1596.84 313.084,1570.18 308.5,1543.5C 304.093,1514.86 302.093,1486.03 302.5,1457C 301.694,1427.67 304.028,1398.67 309.5,1370C 308.944,1369.62 308.611,1369.12 308.5,1368.5C 313.023,1345.54 318.023,1322.87 323.5,1300.5C 352.955,1204.15 403.622,1121.48 475.5,1052.5C 489.802,1040.34 504.136,1028.17 518.5,1016C 577.666,969.667 643.5,936.834 716,917.5C 736.861,911.327 758.027,906.16 779.5,902C 796.395,900.111 813.395,897.944 830.5,895.5C 836.167,895.5 841.833,895.5 847.5,895.5C 865.147,894.736 882.813,894.236 900.5,894C 917.895,888.995 931.062,878.161 940,861.5C 944.218,847.683 947.718,834.016 950.5,820.5C 1022.3,584.415 1163.63,402.248 1374.5,274C 1522.1,188.564 1680.93,145.064 1851,143.5C 1861.11,143.321 1871.11,143.988 1881,145.5C 1894.78,145.269 1908.95,145.269 1923.5,145.5C 1944.82,147.749 1966.15,149.916 1987.5,152C 2014.24,156.51 2040.9,161.343 2067.5,166.5 Z"></path>
  </g>
  <g>
    <path style="opacity:1" fill="#f7962d" d="M 2114.5,178.5 C 2101.99,175.041 2089.33,172.207 2076.5,170C 2073.34,168.973 2070.34,167.806 2067.5,166.5C 2068.12,166.389 2068.62,166.056 2069,165.5C 2083.16,169.42 2097.99,173.253 2113.5,177C 2114.06,177.383 2114.39,177.883 2114.5,178.5 Z"></path>
  </g>
  <g>
    <path style="opacity:1" fill="#f68f19" d="M 2689.5,644.5 C 2694.06,650.079 2698.73,655.746 2703.5,661.5C 2708.95,665.396 2713.95,668.896 2718.5,672C 2719.72,673.648 2720.55,675.481 2721,677.5C 2721.33,676.833 2721.67,676.167 2722,675.5C 2722.86,677.087 2723.53,678.754 2724,680.5C 2724.91,676.815 2725.58,677.148 2726,681.5C 2726.33,680.5 2726.67,679.5 2727,678.5C 2728,680.833 2729,683.167 2730,685.5C 2730.67,681.5 2731.33,681.5 2732,685.5C 2732.67,682.833 2733.33,682.833 2734,685.5C 2735.67,684.66 2735.83,685.16 2734.5,687C 2735.33,687.833 2736.17,688.667 2737,689.5C 2738.67,688.5 2740.33,687.5 2742,686.5C 2744.67,686.5 2747.33,686.5 2750,686.5C 2750.74,687.574 2751.74,688.241 2753,688.5C 2755.99,688.141 2758.99,687.808 2762,687.5C 2766.36,688.558 2770.86,689.891 2775.5,691.5C 2765.4,692.888 2755.23,693.888 2745,694.5C 2730.14,694.308 2717.81,688.642 2708,677.5C 2701.31,666.796 2695.15,655.796 2689.5,644.5 Z"></path>
  </g>
  <g>
    <path style="opacity:1" fill="#f7962c" d="M 3050.5,715.5 C 3027.81,709.493 3005.14,703.827 2982.5,698.5C 2984.47,698.739 2986.3,698.406 2988,697.5C 2992.63,698.939 2997.3,700.273 3002,701.5C 3002.33,701.167 3002.67,700.833 3003,700.5C 3006.14,701.079 3009.14,702.079 3012,703.5C 3012.33,703.167 3012.67,702.833 3013,702.5C 3024.36,705.903 3035.36,709.57 3046,713.5C 3046.33,713.167 3046.67,712.833 3047,712.5C 3048.73,712.974 3049.9,713.974 3050.5,715.5 Z"></path>
  </g>
  <g>
    <path style="opacity:1" fill="#f68d13" d="M 1387.5,788.5 C 1390.91,788.457 1394.24,788.957 1397.5,790C 1439.17,803 1480.83,816 1522.5,829C 1478.49,840.835 1434.49,852.668 1390.5,864.5C 1347.17,852.668 1303.84,840.835 1260.5,829C 1302.97,815.565 1345.3,802.065 1387.5,788.5 Z"></path>
  </g>
  <g>
    <path style="opacity:1" fill="#f68d13" d="M 1744.5,788.5 C 1750.34,788.723 1756.01,789.89 1761.5,792C 1800.91,804.135 1840.24,816.469 1879.5,829C 1835.86,840.937 1792.19,852.77 1748.5,864.5C 1705.08,852.969 1661.74,841.136 1618.5,829C 1660.61,815.481 1702.61,801.981 1744.5,788.5 Z"></path>
  </g>
  <g>
    <path style="opacity:1" fill="#f69120" d="M 950.5,820.5 C 947.718,834.016 944.218,847.683 940,861.5C 931.062,878.161 917.895,888.995 900.5,894C 882.813,894.236 865.147,894.736 847.5,895.5C 850.767,893.798 854.267,892.464 858,891.5C 858.333,891.833 858.667,892.167 859,892.5C 863.829,890.636 868.495,889.303 873,888.5C 880.427,888.585 887.761,888.918 895,889.5C 895.667,886.833 896.333,886.833 897,889.5C 898.43,889.306 899.93,889.306 901.5,889.5C 903.918,888.543 906.084,887.209 908,885.5C 908.419,886.672 909.085,887.672 910,888.5C 911.333,886.833 912.667,885.167 914,883.5C 916.291,884.311 918.125,883.477 919.5,881C 920.448,880.517 921.448,880.351 922.5,880.5C 922.34,878.801 922.506,877.134 923,875.5C 923.333,875.833 923.667,876.167 924,876.5C 925.019,875.313 926.186,874.313 927.5,873.5C 928.711,872.726 928.711,871.893 927.5,871C 928.833,870 930.167,869 931.5,868C 930.949,866.602 930.616,865.268 930.5,864C 931.313,862.686 932.313,861.519 933.5,860.5C 933.291,859.914 932.957,859.414 932.5,859C 934.167,858 935.833,857 937.5,856C 937.76,853.61 937.76,851.11 937.5,848.5C 938.124,846.246 939.457,844.579 941.5,843.5C 940.786,840.497 941.786,837.997 944.5,836C 943.366,834.984 943.699,834.317 945.5,834C 945.167,833 944.833,832 944.5,831C 946.301,830.683 946.634,830.016 945.5,829C 946.877,826.667 947.877,824.167 948.5,821.5C 948.957,820.702 949.624,820.369 950.5,820.5 Z"></path>
  </g>
  <g>
    <path style="opacity:1" fill="#f68d12" d="M 1230.5,851.5 C 1278,864.888 1325.33,878.888 1372.5,893.5C 1373.03,927.598 1373.36,961.431 1373.5,995C 1372.67,1031.43 1372.17,1067.93 1372,1104.5C 1325.21,1088.4 1278.38,1072.4 1231.5,1056.5C 1230.5,988.208 1230.17,919.875 1230.5,851.5 Z"></path>
  </g>
  <g>
    <path style="opacity:1" fill="#f68d11" d="M 1588.5,851.5 C 1635.76,865.2 1682.93,879.2 1730,893.5C 1730.67,963.833 1730.67,1034.17 1730,1104.5C 1683,1088.33 1635.83,1072.67 1588.5,1057.5C 1588.5,988.833 1588.5,920.167 1588.5,851.5 Z"></path>
  </g>
  <g>
    <path style="opacity:1" fill="#f68d12" d="M 1549.5,851.5 C 1550.83,885.327 1551.5,919.493 1551.5,954C 1551.33,988.167 1551.17,1022.33 1551,1056.5C 1504.07,1072.7 1457.07,1088.7 1410,1104.5C 1409.33,1034.17 1409.33,963.833 1410,893.5C 1456.62,879.57 1503.12,865.57 1549.5,851.5 Z"></path>
  </g>
  <g>
    <path style="opacity:1" fill="#f68d12" d="M 1906.5,851.5 C 1907.5,851.5 1908.5,851.5 1909.5,851.5C 1909.17,902.548 1909.17,952.048 1909.5,1000C 1908.67,1018.76 1908.17,1037.59 1908,1056.5C 1861.33,1072.5 1814.67,1088.5 1768,1104.5C 1767.33,1034.17 1767.33,963.833 1768,893.5C 1814.28,879.56 1860.45,865.56 1906.5,851.5 Z"></path>
  </g>
  <g>
    <path style="opacity:1" fill="#f69223" d="M 830.5,895.5 C 813.395,897.944 796.395,900.111 779.5,902C 758.027,906.16 736.861,911.327 716,917.5C 643.5,936.834 577.666,969.667 518.5,1016C 504.136,1028.17 489.802,1040.34 475.5,1052.5C 476.203,1050.28 477.536,1048.45 479.5,1047C 541.973,988.797 613.14,946.964 693,921.5C 696.312,919.683 699.646,918.016 703,916.5C 704.147,917.458 705.147,917.125 706,915.5C 706.333,915.833 706.667,916.167 707,916.5C 710.544,915.37 714.378,914.036 718.5,912.5C 720.705,913.374 722.538,912.708 724,910.5C 724.974,912.878 725.641,912.544 726,909.5C 727,909.833 728,910.167 729,910.5C 729.317,908.699 729.984,908.366 731,909.5C 734.933,908.944 738.766,907.944 742.5,906.5C 743.906,907.668 745.072,907.335 746,905.5C 747.268,905.616 748.602,905.949 750,906.5C 751.53,905.364 752.863,904.364 754,903.5C 755.779,904.479 757.445,904.146 759,902.5C 760,902.833 761,903.167 762,903.5C 771.876,901.102 781.542,899.102 791,897.5C 793.741,898.066 796.408,898.399 799,898.5C 809.332,896.358 819.832,895.358 830.5,895.5 Z"></path>
  </g>
  <g>
    <path style="opacity:1" fill="#f68d13" d="M 852.5,1088.5 C 896.899,1101.69 941.232,1115.19 985.5,1129C 942.021,1141.29 898.354,1153.12 854.5,1164.5C 810.934,1153.28 767.601,1141.44 724.5,1129C 767.372,1115.76 810.039,1102.26 852.5,1088.5 Z"></path>
  </g>
  <g>
    <path style="opacity:1" fill="#f68d13" d="M 1209.5,1088.5 C 1254.29,1101.49 1298.96,1114.99 1343.5,1129C 1299.87,1141.37 1256.04,1153.2 1212,1164.5C 1168.63,1153.2 1125.46,1141.37 1082.5,1129C 1125,1115.63 1167.33,1102.13 1209.5,1088.5 Z"></path>
  </g>
  <g>
    <path style="opacity:1" fill="#100f0d" d="M 1555.5,1139.5 C 1583.37,1137.2 1610.04,1141.7 1635.5,1153C 1659.91,1166.63 1673.07,1187.47 1675,1215.5C 1675.04,1260.53 1675.71,1305.53 1677,1350.5C 1680.63,1364.47 1687.3,1376.8 1697,1387.5C 1697.67,1390.5 1697.67,1393.5 1697,1396.5C 1682.47,1410.36 1667.31,1423.52 1651.5,1436C 1649.17,1436.67 1646.83,1436.67 1644.5,1436C 1636.71,1430.54 1629.87,1424.04 1624,1416.5C 1620.4,1410.95 1616.57,1405.62 1612.5,1400.5C 1581.35,1434.29 1543.35,1445.46 1498.5,1434C 1466.4,1421.19 1449.9,1397.36 1449,1362.5C 1448.11,1313.44 1470.94,1281.27 1517.5,1266C 1545.44,1259.18 1573.77,1255.01 1602.5,1253.5C 1602.67,1244.16 1602.5,1234.83 1602,1225.5C 1599.93,1207.76 1590.09,1197.59 1572.5,1195C 1545.12,1193.28 1528.29,1205.78 1522,1232.5C 1521.1,1233.7 1519.93,1234.53 1518.5,1235C 1500.11,1234.22 1481.78,1232.55 1463.5,1230C 1461,1228.83 1459.17,1227 1458,1224.5C 1461.2,1192.63 1477.03,1169.13 1505.5,1154C 1521.37,1146.37 1538.03,1141.53 1555.5,1139.5 Z"></path>
  </g>
  <g>
    <path style="opacity:1" fill="#100f0d" d="M 2239.5,1139.5 C 2263.86,1137.67 2287.52,1140.84 2310.5,1149C 2340.76,1161.33 2356.92,1183.83 2359,1216.5C 2359.05,1261.86 2359.71,1307.19 2361,1352.5C 2363.07,1359.03 2365.74,1365.37 2369,1371.5C 2373.25,1376.99 2377.25,1382.66 2381,1388.5C 2381.67,1391.17 2381.67,1393.83 2381,1396.5C 2366.45,1410.38 2351.28,1423.55 2335.5,1436C 2333.17,1436.67 2330.83,1436.67 2328.5,1436C 2322.53,1431.76 2317.03,1426.92 2312,1421.5C 2306.82,1414.46 2301.65,1407.46 2296.5,1400.5C 2266.35,1433.38 2229.35,1444.88 2185.5,1435C 2152.4,1423.35 2134.9,1399.85 2133,1364.5C 2131.92,1311.25 2157.09,1277.75 2208.5,1264C 2234.19,1258.23 2260.19,1254.73 2286.5,1253.5C 2286.67,1244.49 2286.5,1235.49 2286,1226.5C 2285.04,1209.88 2276.54,1199.72 2260.5,1196C 2241.42,1191.8 2225.92,1197.3 2214,1212.5C 2210.75,1218.15 2208.42,1224.15 2207,1230.5C 2205.83,1232.33 2204.33,1233.83 2202.5,1235C 2184.11,1234.22 2165.78,1232.55 2147.5,1230C 2141.89,1226.72 2140.06,1221.89 2142,1215.5C 2150.54,1182.62 2170.71,1160.12 2202.5,1148C 2214.71,1144.06 2227.05,1141.23 2239.5,1139.5 Z"></path>
  </g>
  <g>
    <path style="opacity:1" fill="#100f0d" d="M 1873.5,1141.5 C 1896.01,1141.27 1914.18,1149.94 1928,1167.5C 1933.11,1174.71 1937.44,1182.38 1941,1190.5C 1958.35,1154.24 1987.18,1138.4 2027.5,1143C 2058.08,1149.25 2077.25,1167.41 2085,1197.5C 2086.6,1206.43 2087.44,1215.43 2087.5,1224.5C 2086.71,1292.5 2086.21,1360.5 2086,1428.5C 2084.83,1431 2083,1432.83 2080.5,1434C 2061.17,1434.67 2041.83,1434.67 2022.5,1434C 2019.67,1432.5 2017.5,1430.33 2016,1427.5C 2015.67,1364.17 2015.33,1300.83 2015,1237.5C 2012.97,1218.63 2002.47,1208.97 1983.5,1208.5C 1963.44,1211.73 1951.94,1223.39 1949,1243.5C 1947.7,1304.81 1947.03,1366.14 1947,1427.5C 1945.88,1429.62 1944.38,1431.46 1942.5,1433C 1922.59,1434.64 1902.59,1434.98 1882.5,1434C 1879.67,1432.5 1877.5,1430.33 1876,1427.5C 1875.67,1365.5 1875.33,1303.5 1875,1241.5C 1872.36,1215.28 1858.2,1204.78 1832.5,1210C 1823.82,1212.68 1817.65,1218.18 1814,1226.5C 1810.5,1235.5 1808.5,1244.83 1808,1254.5C 1807.67,1312.17 1807.33,1369.83 1807,1427.5C 1805.61,1430.94 1803.11,1433.11 1799.5,1434C 1780.5,1434.67 1761.5,1434.67 1742.5,1434C 1740.91,1432.95 1739.41,1431.79 1738,1430.5C 1736.34,1338.25 1736.01,1245.91 1737,1153.5C 1738.17,1151 1740,1149.17 1742.5,1148C 1761.57,1147.04 1780.57,1147.37 1799.5,1149C 1802.27,1150.76 1803.77,1153.26 1804,1156.5C 1804.33,1168.17 1804.67,1179.83 1805,1191.5C 1816.71,1159.26 1839.54,1142.59 1873.5,1141.5 Z"></path>
  </g>
  <g>
    <path style="opacity:1" fill="#100f0d" d="M 2761.5,1141.5 C 2807.43,1142.87 2840.93,1163.87 2862,1204.5C 2874.96,1231.76 2881.13,1260.59 2880.5,1291C 2881.73,1330.62 2870.9,1366.46 2848,1398.5C 2820.94,1430.42 2786.44,1443.92 2744.5,1439C 2706.31,1431.82 2678.81,1410.66 2662,1375.5C 2642.59,1328.67 2639.25,1280.67 2652,1231.5C 2659.13,1205.06 2672.96,1182.89 2693.5,1165C 2713.4,1149.31 2736.07,1141.48 2761.5,1141.5 Z"></path>
  </g>
  <g>
    <path style="opacity:1" fill="#100f0d" d="M 3059.5,1141.5 C 3105.59,1145.1 3130.09,1170.1 3133,1216.5C 3134.59,1286.82 3134.92,1357.16 3134,1427.5C 3132.5,1430.33 3130.33,1432.5 3127.5,1434C 3108.17,1434.67 3088.83,1434.67 3069.5,1434C 3066.67,1432.5 3064.5,1430.33 3063,1427.5C 3062.97,1364.14 3062.31,1300.81 3061,1237.5C 3058.88,1219.21 3048.71,1209.21 3030.5,1207.5C 3016.33,1208.67 3006.16,1215.67 3000,1228.5C 2995.45,1239.38 2992.78,1250.72 2992,1262.5C 2991.67,1317.5 2991.33,1372.5 2991,1427.5C 2989.41,1430.76 2986.91,1432.92 2983.5,1434C 2964.5,1434.67 2945.5,1434.67 2926.5,1434C 2924,1432.83 2922.17,1431 2921,1428.5C 2920.33,1336.83 2920.33,1245.17 2921,1153.5C 2922.17,1151 2924,1149.17 2926.5,1148C 2945.57,1147.04 2964.57,1147.37 2983.5,1149C 2985.05,1150.21 2986.22,1151.71 2987,1153.5C 2987.33,1167.5 2987.67,1181.5 2988,1195.5C 2992.8,1185.91 2998.13,1176.57 3004,1167.5C 3018.39,1149.92 3036.89,1141.25 3059.5,1141.5 Z"></path>
  </g>
  <g>
    <path style="opacity:1" fill="#100f0d" d="M 2430.5,1146.5 C 2489.5,1146.33 2548.5,1146.5 2607.5,1147C 2609.09,1148.05 2610.59,1149.21 2612,1150.5C 2613.63,1164.74 2613.97,1179.07 2613,1193.5C 2612.28,1195.95 2611.28,1198.28 2610,1200.5C 2577.5,1247 2545,1293.5 2512.5,1340C 2547.95,1338.73 2581.29,1346.39 2612.5,1363C 2615.81,1365.78 2617.97,1369.28 2619,1373.5C 2619.67,1389.17 2619.67,1404.83 2619,1420.5C 2616.79,1425.68 2612.96,1427.85 2607.5,1427C 2557.33,1401.59 2505.33,1397.59 2451.5,1415C 2441.6,1418.62 2431.93,1422.79 2422.5,1427.5C 2418.02,1427.18 2415.18,1424.85 2414,1420.5C 2413.33,1403.17 2413.33,1385.83 2414,1368.5C 2414.41,1364.34 2415.41,1360.34 2417,1356.5C 2452.17,1306 2487.33,1255.5 2522.5,1205C 2490.77,1204.98 2459.11,1204.31 2427.5,1203C 2425.95,1201.79 2424.78,1200.29 2424,1198.5C 2423.33,1182.83 2423.33,1167.17 2424,1151.5C 2425.97,1149.45 2428.13,1147.78 2430.5,1146.5 Z"></path>
  </g>
  <g>
    <path style="opacity:1" fill="#f68d12" d="M 694.5,1151.5 C 741.488,1165.5 788.488,1179.5 835.5,1193.5C 836.833,1263.83 836.833,1334.17 835.5,1404.5C 788.833,1388.83 742.167,1373.17 695.5,1357.5C 694.5,1288.84 694.167,1220.17 694.5,1151.5 Z"></path>
  </g>
  <g>
    <path style="opacity:1" fill="#f68d12" d="M 1014.5,1151.5 C 1015.76,1220.22 1015.76,1288.55 1014.5,1356.5C 967.941,1372.69 921.274,1388.69 874.5,1404.5C 873.167,1334.17 873.167,1263.83 874.5,1193.5C 921.334,1179.66 968.001,1165.66 1014.5,1151.5 Z"></path>
  </g>
  <g>
    <path style="opacity:1" fill="#f68d11" d="M 1194.5,1206.5 C 1194.17,1272.34 1193.17,1338.01 1191.5,1403.5C 1145.46,1388.38 1099.46,1373.04 1053.5,1357.5C 1052.33,1288.84 1052.17,1220.17 1053,1151.5C 1100.07,1165.8 1147.24,1179.8 1194.5,1193.5C 1194.5,1197.83 1194.5,1202.17 1194.5,1206.5 Z"></path>
  </g>
  <g>
    <path style="opacity:1" fill="#f68d12" d="M 1371.5,1151.5 C 1372.12,1151.61 1372.62,1151.94 1373,1152.5C 1372.64,1219.91 1372.47,1288.24 1372.5,1357.5C 1325.72,1372.76 1279.05,1388.43 1232.5,1404.5C 1231.91,1404.29 1231.41,1403.96 1231,1403.5C 1230.33,1333.83 1230.33,1264.17 1231,1194.5C 1277.84,1179.92 1324.68,1165.59 1371.5,1151.5 Z"></path>
  </g>
  <g>
    <path style="opacity:1" fill="#fdfdfd" d="M 2756.5,1196.5 C 2774.88,1194.42 2787.71,1201.76 2795,1218.5C 2798.61,1228.54 2800.94,1238.87 2802,1249.5C 2806.06,1283.01 2805.06,1316.34 2799,1349.5C 2796.49,1361.33 2790.66,1371.17 2781.5,1379C 2762,1389.57 2746.16,1385.73 2734,1367.5C 2726.83,1351.33 2722.83,1334.33 2722,1316.5C 2721.33,1296.5 2721.33,1276.5 2722,1256.5C 2722.23,1238.63 2727.23,1222.3 2737,1207.5C 2742.48,1201.81 2748.98,1198.14 2756.5,1196.5 Z"></path>
  </g>
  <g>
    <path style="opacity:1" fill="#f8b365" d="M 1194.5,1206.5 C 1194.5,1272.5 1194.5,1338.5 1194.5,1404.5C 1193.21,1404.74 1192.21,1404.4 1191.5,1403.5C 1193.17,1338.01 1194.17,1272.34 1194.5,1206.5 Z"></path>
  </g>
  <g>
    <path style="opacity:1" fill="#fcfcfc" d="M 1592.5,1294.5 C 1595.83,1294.5 1599.17,1294.5 1602.5,1294.5C 1602.85,1309.2 1602.35,1323.87 1601,1338.5C 1598.37,1356.6 1589.54,1370.77 1574.5,1381C 1543.32,1391.17 1526.65,1379.83 1524.5,1347C 1525.34,1321.16 1538.34,1305.16 1563.5,1299C 1573.2,1296.78 1582.87,1295.28 1592.5,1294.5 Z"></path>
  </g>
  <g>
    <path style="opacity:1" fill="#fdfdfd" d="M 2276.5,1295.5 C 2279.5,1295.5 2282.5,1295.5 2285.5,1295.5C 2285.5,1306.5 2285.5,1317.5 2285.5,1328.5C 2285.23,1347.12 2278.57,1362.95 2265.5,1376C 2254.75,1384.28 2242.75,1386.95 2229.5,1384C 2218.89,1379.64 2212.39,1371.81 2210,1360.5C 2204.29,1328.74 2216.79,1308.24 2247.5,1299C 2257,1296.48 2266.67,1295.31 2276.5,1295.5 Z"></path>
  </g>
  <g>
    <path style="opacity:1" fill="#c7bfb5" d="M 2276.5,1295.5 C 2279.62,1294.52 2282.96,1294.19 2286.5,1294.5C 2286.83,1306.01 2286.49,1317.35 2285.5,1328.5C 2285.5,1317.5 2285.5,1306.5 2285.5,1295.5C 2282.5,1295.5 2279.5,1295.5 2276.5,1295.5 Z"></path>
  </g>
  <g>
    <path style="opacity:1" fill="#f79428" d="M 323.5,1300.5 C 318.023,1322.87 313.023,1345.54 308.5,1368.5C 306.256,1367.39 306.256,1365.89 308.5,1364C 308.167,1362.33 307.833,1360.67 307.5,1359C 308.88,1357.68 309.214,1356.34 308.5,1355C 309.287,1351.28 310.287,1347.62 311.5,1344C 311.167,1343 310.833,1342 310.5,1341C 312.301,1340.68 312.634,1340.02 311.5,1339C 312.5,1336 313.5,1333 314.5,1330C 314.167,1329 313.833,1328 313.5,1327C 314.167,1326.67 314.833,1326.33 315.5,1326C 316.447,1323.52 316.447,1321.19 315.5,1319C 317.301,1318.68 317.634,1318.02 316.5,1317C 318.39,1311.62 320.39,1306.62 322.5,1302C 321.288,1300.89 321.621,1300.39 323.5,1300.5 Z"></path>
  </g>
  <g>
    <path style="opacity:1" fill="#f68d13" d="M 1032.5,1388.5 C 1076.61,1402.04 1120.61,1415.87 1164.5,1430C 1120.77,1441.91 1076.94,1453.41 1033,1464.5C 989.73,1453.41 946.564,1441.91 903.5,1430C 946.528,1416.05 989.528,1402.21 1032.5,1388.5 Z"></path>
  </g>
  <g>
    <path style="opacity:1" fill="#f68d11" d="M 873.5,1452.5 C 920.833,1466.17 968.167,1479.83 1015.5,1493.5C 1015.5,1563.83 1015.5,1634.17 1015.5,1704.5C 968.168,1689.33 921.001,1673.67 874,1657.5C 873.5,1589.17 873.333,1520.83 873.5,1452.5 Z"></path>
  </g>
  <g>
    <path style="opacity:1" fill="#f68d12" d="M 1053.5,1704.5 C 1052.5,1634.34 1052.17,1564 1052.5,1493.5C 1099.84,1479.83 1147.17,1466.16 1194.5,1452.5C 1194.01,1521.33 1193.51,1589.67 1193,1657.5C 1146.53,1673.27 1100.03,1688.93 1053.5,1704.5 Z"></path>
  </g>
  <g>
    <path style="opacity:1" fill="#11100e" d="M 2629.5,1457.5 C 2644.55,1456.39 2653.21,1463.23 2655.5,1478C 2651.93,1495.62 2641.6,1501.62 2624.5,1496C 2612.89,1486.28 2611.56,1475.28 2620.5,1463C 2623.56,1461.14 2626.56,1459.31 2629.5,1457.5 Z"></path>
  </g>
  <g>
    <path style="opacity:1" fill="#100f0e" d="M 1833.5,1466.5 C 1841.51,1466.33 1849.51,1466.5 1857.5,1467C 1858.67,1468.17 1859.83,1469.33 1861,1470.5C 1861.33,1494.5 1861.67,1518.5 1862,1542.5C 1876.32,1523.61 1895.15,1516.78 1918.5,1522C 1940.81,1527.64 1956.31,1541.14 1965,1562.5C 1978.19,1599.53 1975.85,1635.53 1958,1670.5C 1941.77,1695.19 1918.93,1705.02 1889.5,1700C 1875.62,1695.98 1864.46,1688.15 1856,1676.5C 1853.82,1682.05 1851.82,1687.71 1850,1693.5C 1848.83,1694.67 1847.67,1695.83 1846.5,1697C 1842.5,1697.67 1838.5,1697.67 1834.5,1697C 1832.71,1696.22 1831.21,1695.05 1830,1693.5C 1829.33,1619.17 1829.33,1544.83 1830,1470.5C 1831.38,1469.29 1832.54,1467.96 1833.5,1466.5 Z"></path>
  </g>
  <g>
    <path style="opacity:1" fill="#eadece" d="M 1052.5,1493.5 C 1052.17,1564 1052.5,1634.34 1053.5,1704.5C 1053.44,1705.04 1053.11,1705.38 1052.5,1705.5C 1051.17,1634.67 1051.17,1564 1052.5,1493.5 Z"></path>
  </g>
  <g>
    <path style="opacity:1" fill="#12110f" d="M 2623.5,1520.5 C 2631.17,1520.33 2638.84,1520.5 2646.5,1521C 2648.62,1522.12 2650.46,1523.62 2652,1525.5C 2652.67,1583.17 2652.67,1640.83 2652,1698.5C 2650.83,1701 2649,1702.83 2646.5,1704C 2638.5,1704.67 2630.5,1704.67 2622.5,1704C 2621,1702.5 2619.5,1701 2618,1699.5C 2617.33,1641.5 2617.33,1583.5 2618,1525.5C 2619.41,1523.26 2621.24,1521.59 2623.5,1520.5 Z"></path>
  </g>
  <g>
    <path style="opacity:1" fill="#11100e" d="M 2459.5,1521.5 C 2467.84,1521.33 2476.17,1521.5 2484.5,1522C 2487.1,1522.88 2489.27,1524.38 2491,1526.5C 2504.51,1568.89 2518.18,1611.23 2532,1653.5C 2545.33,1611.5 2558.67,1569.5 2572,1527.5C 2573.5,1525.33 2575.33,1523.5 2577.5,1522C 2584.5,1521.33 2591.5,1521.33 2598.5,1522C 2600.29,1522.78 2601.79,1523.95 2603,1525.5C 2602.32,1531.24 2600.98,1536.91 2599,1542.5C 2581.86,1594.92 2564.53,1647.25 2547,1699.5C 2546.1,1700.7 2544.93,1701.53 2543.5,1702C 2534.17,1702.67 2524.83,1702.67 2515.5,1702C 2513.38,1700.27 2511.88,1698.1 2511,1695.5C 2491.49,1638.98 2472.83,1582.31 2455,1525.5C 2456.4,1523.93 2457.9,1522.6 2459.5,1521.5 Z"></path>
  </g>
  <g>
    <path style="opacity:1" fill="#11100e" d="M 1800.5,1617.5 C 1764.33,1617.17 1728.33,1617.5 1692.5,1618.5C 1690.4,1636.95 1695.73,1652.78 1708.5,1666C 1729.33,1681.16 1748.5,1679.33 1766,1660.5C 1768.73,1656.76 1771.07,1652.76 1773,1648.5C 1776.05,1644.87 1779.88,1643.7 1784.5,1645C 1788.83,1646 1793.17,1647 1797.5,1648C 1801.93,1649.75 1803.77,1652.91 1803,1657.5C 1787.65,1690.77 1761.48,1705.94 1724.5,1703C 1691.6,1698.11 1670.43,1679.61 1661,1647.5C 1651.37,1613.76 1655.7,1582.09 1674,1552.5C 1697.02,1523.78 1726.18,1515.28 1761.5,1527C 1782.2,1536.36 1795.7,1551.86 1802,1573.5C 1805.52,1586.29 1807.19,1599.29 1807,1612.5C 1805.44,1615.02 1803.28,1616.69 1800.5,1617.5 Z"></path>
  </g>
  <g>
    <path style="opacity:1" fill="#11100e" d="M 2080.5,1522.5 C 2098.59,1520.91 2115.59,1524.41 2131.5,1533C 2142.7,1540.19 2150.03,1550.19 2153.5,1563C 2153.68,1567.31 2151.68,1569.98 2147.5,1571C 2140.93,1572.98 2134.27,1573.98 2127.5,1574C 2124.39,1570.94 2121.89,1567.44 2120,1563.5C 2107.2,1549.8 2091.7,1545.63 2073.5,1551C 2059.38,1557 2055.22,1567.17 2061,1581.5C 2065.27,1586.76 2070.77,1589.93 2077.5,1591C 2090.14,1593.46 2102.81,1595.79 2115.5,1598C 2154.21,1607.25 2168.38,1631.09 2158,1669.5C 2152.04,1682.79 2142.21,1691.96 2128.5,1697C 2101.79,1706.02 2075.45,1705.02 2049.5,1694C 2034.53,1685.52 2024.53,1673.02 2019.5,1656.5C 2020.2,1652.97 2022.2,1650.47 2025.5,1649C 2032.38,1646.96 2039.38,1645.96 2046.5,1646C 2050.21,1649.91 2053.04,1654.41 2055,1659.5C 2067.66,1672.72 2083.16,1678.22 2101.5,1676C 2108.37,1675.06 2114.71,1672.73 2120.5,1669C 2131.49,1657.22 2131.15,1645.89 2119.5,1635C 2115.73,1632.78 2111.73,1631.11 2107.5,1630C 2089.6,1626.89 2071.93,1622.89 2054.5,1618C 2028.57,1604.62 2019.74,1583.79 2028,1555.5C 2033.87,1542.63 2043.37,1533.47 2056.5,1528C 2064.49,1525.57 2072.49,1523.74 2080.5,1522.5 Z"></path>
  </g>
  <g>
    <path style="opacity:1" fill="#11100e" d="M 2244.5,1522.5 C 2292.06,1520.23 2319.89,1542.56 2328,1589.5C 2329.31,1597.13 2329.64,1604.8 2329,1612.5C 2328.17,1614.67 2326.67,1616.17 2324.5,1617C 2287.83,1617.5 2251.17,1617.67 2214.5,1617.5C 2212.58,1636.23 2217.91,1652.4 2230.5,1666C 2250.47,1680.92 2269.3,1679.76 2287,1662.5C 2290.17,1658.16 2292.84,1653.49 2295,1648.5C 2296.58,1646.96 2298.41,1645.79 2300.5,1645C 2308.42,1645.38 2316.09,1647.05 2323.5,1650C 2325.44,1652.15 2325.94,1654.65 2325,1657.5C 2314,1684.1 2294.16,1699.26 2265.5,1703C 2223.22,1705.62 2195.72,1686.78 2183,1646.5C 2174.06,1613.99 2178.06,1583.32 2195,1554.5C 2207.27,1537.13 2223.77,1526.46 2244.5,1522.5 Z"></path>
  </g>
  <g>
    <path style="opacity:1" fill="#10100e" d="M 2890.5,1522.5 C 2933.22,1519.4 2960.38,1538.4 2972,1579.5C 2974.84,1590.35 2975.84,1601.35 2975,1612.5C 2974.17,1614.67 2972.67,1616.17 2970.5,1617C 2933.83,1617.5 2897.17,1617.67 2860.5,1617.5C 2858.57,1636.2 2863.9,1652.37 2876.5,1666C 2896.39,1680.94 2915.22,1679.77 2933,1662.5C 2936.17,1658.16 2938.84,1653.49 2941,1648.5C 2943.3,1646.43 2945.97,1645.09 2949,1644.5C 2955.99,1645.7 2962.83,1647.53 2969.5,1650C 2971.44,1652.15 2971.94,1654.65 2971,1657.5C 2960,1684.1 2940.16,1699.26 2911.5,1703C 2869.27,1705.64 2841.77,1686.8 2829,1646.5C 2820.76,1616.27 2823.76,1587.27 2838,1559.5C 2850.12,1539.37 2867.62,1527.04 2890.5,1522.5 Z"></path>
  </g>
  <g>
    <path style="opacity:1" fill="#11100e" d="M 3048.5,1522.5 C 3065.71,1521.37 3082.04,1524.54 3097.5,1532C 3109.89,1539.22 3117.89,1549.72 3121.5,1563.5C 3121.53,1567.61 3119.53,1570.11 3115.5,1571C 3111.42,1571.69 3107.42,1572.69 3103.5,1574C 3095.51,1575.05 3090.34,1571.55 3088,1563.5C 3072.04,1546.99 3053.87,1544.15 3033.5,1555C 3025.98,1562.67 3024.48,1571.5 3029,1581.5C 3033.22,1586.86 3038.72,1590.03 3045.5,1591C 3058.17,1593.33 3070.84,1595.67 3083.5,1598C 3121.7,1607.57 3135.87,1631.4 3126,1669.5C 3117.84,1685.98 3104.67,1696.15 3086.5,1700C 3059.25,1706.5 3033.58,1702.83 3009.5,1689C 2997.25,1680.12 2990.08,1668.28 2988,1653.5C 2989.54,1651.62 2991.38,1650.12 2993.5,1649C 2999.86,1647.73 3006.19,1646.73 3012.5,1646C 3015.2,1646.69 3017.36,1648.19 3019,1650.5C 3021.22,1657.72 3025.39,1663.56 3031.5,1668C 3050.97,1679.22 3070.3,1679.22 3089.5,1668C 3101.22,1651.15 3097.55,1638.81 3078.5,1631C 3065.27,1627.82 3051.94,1625.15 3038.5,1623C 2999.91,1614.07 2986.07,1590.57 2997,1552.5C 3002.5,1543 3010,1535.5 3019.5,1530C 3029.02,1526.37 3038.69,1523.87 3048.5,1522.5 Z"></path>
  </g>
  <g>
    <path style="opacity:1" fill="#11100e" d="M 1441.5,1523.5 C 1448.84,1523.33 1456.17,1523.5 1463.5,1524C 1466.63,1524.98 1469.13,1526.81 1471,1529.5C 1481.16,1566.46 1491.16,1603.46 1501,1640.5C 1510.67,1603.83 1520.33,1567.17 1530,1530.5C 1531.17,1527.33 1533.33,1525.17 1536.5,1524C 1542.17,1523.33 1547.83,1523.33 1553.5,1524C 1555.59,1524.79 1557.42,1525.96 1559,1527.5C 1569.98,1565.4 1580.64,1603.4 1591,1641.5C 1601.69,1603.4 1612.69,1565.4 1624,1527.5C 1627.75,1524.02 1632.25,1522.69 1637.5,1523.5C 1649.09,1521.91 1653.26,1526.58 1650,1537.5C 1635.84,1589.12 1621.84,1640.79 1608,1692.5C 1607.26,1696.06 1605.76,1699.23 1603.5,1702C 1595.91,1703.56 1588.25,1703.9 1580.5,1703C 1579.33,1701.83 1578.17,1700.67 1577,1699.5C 1566.15,1662.41 1555.15,1625.41 1544,1588.5C 1534.16,1625.54 1524.16,1662.54 1514,1699.5C 1512.79,1701.05 1511.29,1702.22 1509.5,1703C 1502.83,1703.67 1496.17,1703.67 1489.5,1703C 1487.71,1702.22 1486.21,1701.05 1485,1699.5C 1469.13,1644.22 1453.46,1588.89 1438,1533.5C 1437.33,1531.5 1437.33,1529.5 1438,1527.5C 1439.38,1526.29 1440.54,1524.96 1441.5,1523.5 Z"></path>
  </g>
  <g>
    <path style="opacity:1" fill="#11100e" d="M 2735.5,1522.5 C 2777,1521.23 2801.67,1540.9 2809.5,1581.5C 2809.83,1586.01 2807.83,1588.84 2803.5,1590C 2797.17,1590.67 2790.83,1590.67 2784.5,1590C 2782.91,1588.95 2781.41,1587.79 2780,1586.5C 2778.08,1577.05 2774.41,1568.39 2769,1560.5C 2751.37,1545.09 2734.7,1546.09 2719,1563.5C 2708.87,1581.49 2704.87,1600.82 2707,1621.5C 2707.55,1634.94 2710.89,1647.6 2717,1659.5C 2729.59,1677.06 2745.09,1680.22 2763.5,1669C 2771.07,1661.7 2775.9,1652.86 2778,1642.5C 2778.88,1639.9 2780.38,1637.73 2782.5,1636C 2789.39,1634.41 2796.39,1634.08 2803.5,1635C 2808.92,1637.02 2810.76,1640.85 2809,1646.5C 2797.83,1689.98 2770,1708.15 2725.5,1701C 2704.38,1694.68 2689.88,1681.18 2682,1660.5C 2674.01,1639.54 2671.34,1617.87 2674,1595.5C 2676.59,1570.48 2687.42,1549.98 2706.5,1534C 2715.39,1527.87 2725.06,1524.04 2735.5,1522.5 Z"></path>
  </g>
  <g>
    <path style="opacity:1" fill="#12110f" d="M 2414.5,1524.5 C 2420.51,1524.33 2426.51,1524.5 2432.5,1525C 2434.94,1525.77 2436.77,1527.27 2438,1529.5C 2438.67,1536.17 2438.67,1542.83 2438,1549.5C 2437.05,1551.57 2435.55,1553.07 2433.5,1554C 2410.03,1555.46 2394.7,1567.46 2387.5,1590C 2386.29,1593.75 2385.46,1597.58 2385,1601.5C 2384.67,1633.17 2384.33,1664.83 2384,1696.5C 2383.17,1699.33 2381.33,1701.17 2378.5,1702C 2371.5,1702.67 2364.5,1702.67 2357.5,1702C 2355.06,1701.23 2353.23,1699.73 2352,1697.5C 2351.02,1642.45 2351.35,1587.45 2353,1532.5C 2354.21,1530.95 2355.71,1529.78 2357.5,1529C 2363.83,1528.33 2370.17,1528.33 2376.5,1529C 2378.57,1529.95 2380.07,1531.45 2381,1533.5C 2381.33,1539.5 2381.67,1545.5 2382,1551.5C 2389.45,1538.2 2400.28,1529.2 2414.5,1524.5 Z"></path>
  </g>
  <g>
    <path style="opacity:1" fill="#f69223" d="M 308.5,1543.5 C 313.084,1570.18 319.418,1596.84 327.5,1623.5C 325.855,1622.52 324.521,1621.19 323.5,1619.5C 323.623,1617.62 323.623,1615.79 323.5,1614C 322.292,1611.75 320.959,1609.58 319.5,1607.5C 319.623,1605.62 319.623,1603.79 319.5,1602C 318.833,1601.67 318.167,1601.33 317.5,1601C 317.833,1600 318.167,1599 318.5,1598C 317.833,1597.67 317.167,1597.33 316.5,1597C 316.327,1594.74 316.327,1592.41 316.5,1590C 315.5,1589 314.5,1588 313.5,1587C 313.833,1586 314.167,1585 314.5,1584C 313.833,1583.67 313.167,1583.33 312.5,1583C 313.174,1581.25 313.507,1579.58 313.5,1578C 312.833,1577 312.167,1576 311.5,1575C 311.5,1573.33 311.5,1571.67 311.5,1570C 310.833,1569.67 310.167,1569.33 309.5,1569C 308.22,1564.96 308.22,1561.29 309.5,1558C 308.833,1557 308.167,1556 307.5,1555C 307.364,1551.38 307.697,1547.55 308.5,1543.5 Z"></path>
  </g>
  <g>
    <path style="opacity:1" fill="#fdfdfc" d="M 1771.5,1588.5 C 1771.5,1589.83 1771.5,1591.17 1771.5,1592.5C 1745.5,1592.5 1719.5,1592.5 1693.5,1592.5C 1695.1,1573.44 1704.1,1559.27 1720.5,1550C 1742.41,1543.85 1758.24,1551.02 1768,1571.5C 1770.28,1576.95 1771.45,1582.62 1771.5,1588.5 Z"></path>
  </g>
  <g>
    <path style="opacity:1" fill="#fdfcfc" d="M 1897.5,1546.5 C 1911.14,1546.07 1921.31,1551.73 1928,1563.5C 1942.75,1595.03 1943.08,1626.7 1929,1658.5C 1917.06,1675.26 1901.9,1679.09 1883.5,1670C 1876.21,1665.04 1870.71,1658.54 1867,1650.5C 1861.78,1631.51 1860.11,1612.18 1862,1592.5C 1863.6,1577.14 1870.1,1564.3 1881.5,1554C 1886.54,1550.64 1891.88,1548.14 1897.5,1546.5 Z"></path>
  </g>
  <g>
    <path style="opacity:1" fill="#fdfcfb" d="M 2249.5,1547.5 C 2269.82,1545.98 2283.65,1554.65 2291,1573.5C 2293.26,1579.98 2294.43,1586.65 2294.5,1593.5C 2268.17,1593.5 2241.83,1593.5 2215.5,1593.5C 2217.42,1570.95 2228.76,1555.61 2249.5,1547.5 Z"></path>
  </g>
  <g>
    <path style="opacity:1" fill="#fcfcfb" d="M 2895.5,1547.5 C 2917.15,1546.33 2931.32,1556 2938,1576.5C 2939.68,1582.05 2940.51,1587.72 2940.5,1593.5C 2914.17,1593.5 2887.83,1593.5 2861.5,1593.5C 2863.42,1570.95 2874.76,1555.61 2895.5,1547.5 Z"></path>
  </g>
  <g>
    <path style="opacity:1" fill="#e4d8ca" d="M 1771.5,1588.5 C 1772.45,1589.92 1772.78,1591.59 1772.5,1593.5C 1745.99,1593.83 1719.66,1593.5 1693.5,1592.5C 1719.5,1592.5 1745.5,1592.5 1771.5,1592.5C 1771.5,1591.17 1771.5,1589.83 1771.5,1588.5 Z"></path>
  </g>
  <g>
    <path style="opacity:1" fill="#eadece" d="M 1692.5,1618.5 C 1728.33,1617.5 1764.33,1617.17 1800.5,1617.5C 1799.83,1618.27 1798.99,1618.93 1798,1619.5C 1763.21,1618.96 1728.04,1618.63 1692.5,1618.5 Z"></path>
  </g>
  <g>
    <path style="opacity:1" fill="#f58d10" d="M 1040.5,2017.5 C 1626.17,2017.5 2211.83,2017.5 2797.5,2017.5C 2212.1,2018.17 1626.6,2018.83 1041,2019.5C 1040.54,2018.91 1040.37,2018.24 1040.5,2017.5 Z"></path>
  </g>
</svg>
